PathFileType	4	(X/Y/Z)	OpenSim_Sub01_CSStiffKnee_Gyro.trc
DataRate	CameraRate	NumFrames	NumMarkers	Units	OrigDataRate	OrigDataStartFrame	OrigNumFrames
100	100	30	8	m	100	3364	5381
Frame#	Time	torso_imu_offset_imu	pelvis_imu_offset_imu	tibia_r_imu_offset_imu	femur_r_imu_offset_imu	tibia_l_imu_offset_imu	femur_l_imu_offset_imu	toes_r_imu_offset_imu	toes_l_imu_offset_imu
				X1	Y1	Z1	X2	Y2	Z2	X3	Y3	Z3	X4	Y4	Z4	X5	Y5	Z5	X6	Y6	Z6	X7	Y7	Z7	X8		Y8	Z8	

3364	33.63000000	-0.12031376	0.09909425	-0.12927855	-0.27467148	-0.50609453	-0.04254399	0.44277164	-0.14698840	-2.36977793	-0.36159006	0.22299961	1.53369829	-0.39946936	-0.26824915	1.27016850	0.06890142	-0.56312335	1.06157031	-0.54510546	-4.02385917	-1.33913257	-0.13351618	-0.54661417	0.12371476
3365	33.64000000	-0.19205448	0.00725955	-0.14301027	-0.27014990	-0.31177746	0.01360182	0.66776509	-0.14386900	-2.23658823	-0.25672595	0.11446583	1.48094953	-0.29357186	-0.31975577	1.14195078	0.57915960	-0.60526681	1.29520757	-0.41271426	-3.25202151	-0.88267065	-0.06026854	-0.39815058	0.10995800
3366	33.65000000	-0.25401844	-0.05640332	-0.17291852	-0.28707570	-0.10497536	0.05350587	0.60914521	-0.10904148	-1.96862977	-0.13520324	0.05025240	1.39357374	-0.19534268	-0.36914013	0.96763319	0.97364153	-0.63374250	1.17210887	0.00375449	-2.14000798	-0.06838275	-0.04489093	-0.31923776	0.10500792
3367	33.66000000	-0.30472198	-0.08899029	-0.20803728	-0.31337177	0.06005474	0.09683248	0.24037625	-0.02819709	-1.56597714	-0.05570075	0.02811696	1.33698039	-0.21182776	-0.37965743	0.81875658	1.10506740	-0.61549967	0.95060530	0.43024266	-1.16501481	0.81962451	-0.03405229	-0.29061088	0.09072067
3368	33.67000000	-0.34451951	-0.09166612	-0.23874763	-0.33758605	0.14750235	0.15354972	-0.33336142	0.08253564	-1.04778382	-0.04437665	0.04015775	1.34385607	-0.36898447	-0.33716116	0.73631774	0.91792198	-0.54036562	0.81424986	0.67076166	-0.58022659	1.54022995	0.00341348	-0.29341464	0.05856447
3369	33.68000000	-0.37769242	-0.07445168	-0.25864607	-0.35002688	0.16274624	0.21153400	-0.71446284	0.13905199	-0.47506714	-0.05397886	0.06622549	1.37315477	-0.50998770	-0.27859856	0.69164868	0.56166459	-0.44997611	0.77320921	0.70983691	-0.13069373	1.95347573	0.04780281	-0.30996643	0.02177516
3370	33.69000000	-0.40879811	-0.04857417	-0.26243737	-0.34210434	0.11793540	0.25758669	-0.51894617	0.05947186	0.08623468	-0.03142892	0.08586514	1.37818469	-0.47097254	-0.24409298	0.64964119	0.20504228	-0.38941507	0.81124943	0.56233993	0.47792821	1.95055293	0.07506720	-0.32392289	-0.00484428
3371	33.70000000	-0.43975798	-0.02534443	-0.25177617	-0.31414415	0.03757654	0.29826964	0.08805681	-0.12016578	0.57785919	0.03395739	0.09257335	1.35696266	-0.27071808	-0.23518602	0.60601235	-0.07039809	-0.36699470	0.88178247	0.30427212	1.23689225	1.60291182	0.08736064	-0.33112844	-0.02071909
3372	33.71000000	-0.47093383	-0.01609952	-0.23241836	-0.27175177	-0.04657848	0.35173893	0.61825106	-0.29439954	0.94630304	0.12784076	0.08808864	1.33382120	-0.03558504	-0.23068813	0.57463598	-0.23465569	-0.36933216	0.92047410	0.04750529	1.95898995	1.08817436	0.10225405	-0.33461531	-0.03365202
3373	33.72000000	-0.50171502	-0.02728821	-0.21043228	-0.22485653	-0.11227237	0.42287490	0.74542541	-0.38728278	1.18704474	0.23275901	0.07660850	1.32072595	0.14239496	-0.21548756	0.56357363	-0.28013546	-0.38240951	0.89690607	-0.13652203	2.52809817	0.54897174	0.12880469	-0.33701191	-0.04809622
3374	33.73000000	-0.52936603	-0.05445134	-0.19246504	-0.19288317	-0.15864177	0.48660161	0.51434090	-0.39072635	1.40471716	0.32500370	0.06757937	1.30128975	0.25089029	-0.18868927	0.56739440	-0.24774922	-0.39141727	0.85684756	-0.26762325	2.99185077	0.04679944	0.15662896	-0.33983838	-0.06078933
3375	33.74000000	-0.55100807	-0.09156882	-0.18469735	-0.19367426	-0.18705090	0.51597757	0.02200203	-0.30969969	1.70599534	0.38106006	0.06979481	1.25825463	0.28941974	-0.15182271	0.57922952	-0.18107092	-0.38386026	0.85052441	-0.37506342	3.41351870	-0.37022809	0.17330952	-0.34390913	-0.06740783
3376	33.75000000	-0.56525144	-0.13174290	-0.18768623	-0.21547515	-0.19197672	0.50664631	-0.61343930	-0.18919724	2.06616411	0.38813779	0.07797624	1.20497714	0.26851197	-0.11158810	0.59621269	-0.08340086	-0.37224086	0.86774858	-0.45821724	3.78905958	-0.67880259	0.17258937	-0.34430048	-0.06345083
3377	33.76000000	-0.57158527	-0.16756548	-0.19866676	-0.22914052	-0.16387754	0.46758573	-1.26136591	-0.09765698	2.38321388	0.33980482	0.07857074	1.17280437	0.20521229	-0.07772145	0.61782254	0.06560613	-0.38372767	0.86279985	-0.49888501	4.07483338	-0.87026911	0.15186278	-0.33272314	-0.04432682
3378	33.77000000	-0.56958680	-0.19319756	-0.21391683	-0.22015724	-0.10258986	0.41014975	-1.79324880	-0.06797881	2.60050598	0.23636158	0.06374908	1.17838921	0.12118556	-0.05688229	0.64009711	0.26245903	-0.42850758	0.81256108	-0.49121527	4.25077053	-0.94019905	0.11217709	-0.30497401	-0.00842020
3379	33.78000000	-0.55900461	-0.20631589	-0.22767443	-0.20716209	-0.02899134	0.35060945	-2.08557765	-0.05309169	2.76486565	0.09294722	0.03869160	1.20507893	0.04821617	-0.04877822	0.65133001	0.44980010	-0.47845373	0.74537342	-0.45741561	4.35053538	-0.89317132	0.06262528	-0.26606451	0.03924194
3380	33.79000000	-0.53979335	-0.20564767	-0.23442403	-0.21124548	0.03498451	0.30452370	-2.02911989	-0.00055881	2.93250390	-0.07254002	0.01027740	1.23278010	0.01568670	-0.05185814	0.64045633	0.56715147	-0.50285627	0.69474871	-0.42189630	4.41123294	-0.73633275	0.01311722	-0.22197267	0.09259508
3381	33.80000000	-0.51379614	-0.19585336	-0.23404390	-0.23252249	0.08589509	0.27323074	-1.65503028	0.08574264	3.11200337	-0.23444522	-0.01524985	1.25240161	0.01404902	-0.06128742	0.61385115	0.59706818	-0.49785814	0.67569957	-0.39261296	4.43043002	-0.49075862	-0.02924270	-0.17578366	0.14414298
3382	33.81000000	-0.48397227	-0.18507764	-0.22959044	-0.25875201	0.13119853	0.24969185	-1.07727655	0.16878987	3.28387729	-0.36259160	-0.03204265	1.26134942	0.01083935	-0.07029518	0.58814997	0.54752448	-0.47543911	0.69227954	-0.36777602	4.38245191	-0.18570855	-0.05902473	-0.12887311	0.18557073
3383	33.82000000	-0.45374798	-0.17809771	-0.22331526	-0.28136834	0.17680743	0.22939877	-0.40919104	0.22736816	3.43437843	-0.43821317	-0.03876733	1.25845090	-0.01580344	-0.07226161	0.57412653	0.43361796	-0.44675224	0.73875182	-0.33746166	4.25911692	0.15636811	-0.07497077	-0.08195566	0.21405110
3384	33.83000000	-0.42755915	-0.17207655	-0.21558268	-0.30036300	0.22487166	0.21373104	0.23969988	0.27649076	3.56337542	-0.46813493	-0.04415051	1.24551759	-0.06342227	-0.06095982	0.56917960	0.28560721	-0.42064926	0.78785080	-0.27387737	4.09194527	0.52845362	-0.08508257	-0.03432057	0.23902501
3385	33.84000000	-0.40954078	-0.16342617	-0.20649784	-0.31648502	0.27656078	0.20470170	0.76683303	0.33467486	3.67196476	-0.46156292	-0.05735483	1.22447096	-0.12626637	-0.03155413	0.56892025	0.13289480	-0.40512943	0.81151393	-0.15186265	3.91398427	0.92328840	-0.09760055	0.01415898	0.27009001
3386	33.85000000	-0.39931147	-0.15144202	-0.19612658	-0.32635043	0.32818043	0.20263981	1.13621446	0.40600566	3.75489934	-0.41653712	-0.07799184	1.19419888	-0.19855097	0.00697749	0.56918707	-0.02513173	-0.40260632	0.80352419	0.00161067	3.71858887	1.30956055	-0.11029465	0.05558989	0.30132422
3387	33.86000000	-0.39382572	-0.13712635	-0.18451280	-0.32414131	0.37316412	0.20687335	1.35120479	0.48603625	3.80321951	-0.32457603	-0.10004041	1.15180640	-0.27445191	0.03753685	0.56597205	-0.20672953	-0.41217626	0.77056635	0.12894182	3.47583674	1.64183980	-0.11477873	0.07737457	0.31768358
3388	33.87000000	-0.39007417	-0.12271672	-0.17197357	-0.30491391	0.40434904	0.21510343	1.43312923	0.56638721	3.81423159	-0.19107859	-0.11781243	1.09582425	-0.34404019	0.04908107	0.55933877	-0.41711636	-0.42823826	0.72248922	0.19891066	3.18500049	1.88960573	-0.10702922	0.07251876	0.31110103
3389	33.88000000	-0.38520491	-0.11315780	-0.15943600	-0.26574525	0.41332471	0.22143007	1.44226180	0.63015073	3.79933012	-0.05260280	-0.12652533	1.02801571	-0.38822899	0.04431252	0.55843111	-0.63190668	-0.43480606	0.67582920	0.24004254	2.91116562	2.05601297	-0.09293415	0.04666653	0.28934015
3390	33.89000000	-0.37664224	-0.11332134	-0.14773854	-0.20468470	0.39309068	0.22001250	1.44053600	0.66165868	3.77095436	0.05455278	-0.12170246	0.95104860	-0.38870223	0.02814011	0.57245004	-0.82294226	-0.41687296	0.64661718	0.28580939	2.72101142	2.14913897	-0.07908712	0.00719950	0.26177091
3391	33.90000000	-0.36444212	-0.12354492	-0.13595197	-0.12699698	0.35294616	0.21065149	1.45261099	0.66995385	3.73264970	0.14029263	-0.10076019	0.87241369	-0.34789284	0.00905258	0.59850186	-0.96446831	-0.38405193	0.63632359	0.33729358	2.60573960	2.18084364	-0.06552076	-0.03821691	0.23223381
3392	33.91000000	-0.35020508	-0.14148756	-0.12210938	-0.04220763	0.31176495	0.19647458	1.48107719	0.67861831	3.68272256	0.24162291	-0.06226712	0.80241754	-0.28047977	-0.00237376	0.62657796	-1.03220290	-0.36042727	0.63782320	0.37647148	2.51209315	2.16518567	-0.04841106	-0.08176165	0.20132008
3393	33.92000000	-0.33386510	-0.16399514	-0.10531558	0.03923069	0.27978107	0.18035131	1.51150745	0.70318683	3.62109570	0.36290672	-0.01231895	0.74515424	-0.20240282	-0.00069664	0.65087930	-1.01353978	-0.35905059	0.64266804	0.38551217	2.40086884	2.10933516	-0.02685602	-0.11811911	0.17229181
